<mxfile host="65bd71144e">
    <diagram id="_9Jn0IIo0bLrEoNpIEdZ" name="Page-1">
        <mxGraphModel dx="859" dy="690" grid="1" gridSize="10" guides="1" tooltips="1" connect="1" arrows="1" fold="1" page="1" pageScale="1" pageWidth="827" pageHeight="1169" math="0" shadow="0">
            <root>
                <mxCell id="0"/>
                <mxCell id="1" parent="0"/>
                <mxCell id="16" value="" style="rounded=0;whiteSpace=wrap;html=1;fillColor=#f5f5f5;fontColor=#333333;strokeColor=#666666;" parent="1" vertex="1">
                    <mxGeometry x="60" y="370" width="620" height="120" as="geometry"/>
                </mxCell>
                <mxCell id="15" value="" style="rounded=0;whiteSpace=wrap;html=1;fillColor=#f5f5f5;fontColor=#333333;strokeColor=#666666;" parent="1" vertex="1">
                    <mxGeometry x="60" y="241" width="620" height="119" as="geometry"/>
                </mxCell>
                <mxCell id="19" value="" style="edgeStyle=none;html=1;" parent="1" source="2" target="15" edge="1">
                    <mxGeometry relative="1" as="geometry"/>
                </mxCell>
                <mxCell id="2" value="lounger" style="rounded=1;whiteSpace=wrap;html=1;fillColor=#dae8fc;strokeColor=#6c8ebf;" parent="1" vertex="1">
                    <mxGeometry x="310" y="150" width="120" height="60" as="geometry"/>
                </mxCell>
                <mxCell id="4" value="数据驱动" style="rounded=1;whiteSpace=wrap;html=1;fillColor=#f8cecc;strokeColor=#b85450;" parent="1" vertex="1">
                    <mxGeometry x="120" y="260" width="120" height="30" as="geometry"/>
                </mxCell>
                <mxCell id="5" value="脚手架" style="rounded=1;whiteSpace=wrap;html=1;fillColor=#f8cecc;strokeColor=#b85450;" parent="1" vertex="1">
                    <mxGeometry x="260" y="260" width="120" height="30" as="geometry"/>
                </mxCell>
                <mxCell id="6" value="数据库操作" style="rounded=1;whiteSpace=wrap;html=1;fillColor=#f8cecc;strokeColor=#b85450;" parent="1" vertex="1">
                    <mxGeometry x="400" y="260" width="120" height="30" as="geometry"/>
                </mxCell>
                <mxCell id="7" value="pytest-playwright" style="rounded=1;whiteSpace=wrap;html=1;fillColor=#b1ddf0;strokeColor=#10739e;" parent="1" vertex="1">
                    <mxGeometry x="120" y="440" width="120" height="30" as="geometry"/>
                </mxCell>
                <mxCell id="8" value="环境变量" style="rounded=1;whiteSpace=wrap;html=1;fillColor=#f8cecc;strokeColor=#b85450;" parent="1" vertex="1">
                    <mxGeometry x="400" y="310" width="120" height="30" as="geometry"/>
                </mxCell>
                <mxCell id="10" value="pytest-rerunfailures" style="rounded=1;whiteSpace=wrap;html=1;fillColor=#b1ddf0;strokeColor=#10739e;" parent="1" vertex="1">
                    <mxGeometry x="255" y="440" width="120" height="30" as="geometry"/>
                </mxCell>
                <mxCell id="11" value="pytest-html" style="rounded=1;whiteSpace=wrap;html=1;fillColor=#b1ddf0;strokeColor=#10739e;" parent="1" vertex="1">
                    <mxGeometry x="400" y="390" width="120" height="30" as="geometry"/>
                </mxCell>
                <mxCell id="13" value="内置" style="text;html=1;strokeColor=none;fillColor=none;align=center;verticalAlign=middle;whiteSpace=wrap;rounded=0;" parent="1" vertex="1">
                    <mxGeometry x="60" y="250" width="60" height="30" as="geometry"/>
                </mxCell>
                <mxCell id="14" value="集成" style="text;html=1;strokeColor=none;fillColor=none;align=center;verticalAlign=middle;whiteSpace=wrap;rounded=0;" parent="1" vertex="1">
                    <mxGeometry x="60" y="390" width="60" height="30" as="geometry"/>
                </mxCell>
                <mxCell id="20" value="pytest-xdist" style="rounded=1;whiteSpace=wrap;html=1;fillColor=#b1ddf0;strokeColor=#10739e;" vertex="1" parent="1">
                    <mxGeometry x="255" y="390" width="120" height="30" as="geometry"/>
                </mxCell>
                <mxCell id="21" value="pytest-req" style="rounded=1;whiteSpace=wrap;html=1;fillColor=#f8cecc;strokeColor=#b85450;" vertex="1" parent="1">
                    <mxGeometry x="120" y="390" width="120" height="30" as="geometry"/>
                </mxCell>
                <mxCell id="22" value="cache缓存" style="rounded=1;whiteSpace=wrap;html=1;fillColor=#f8cecc;strokeColor=#b85450;" vertex="1" parent="1">
                    <mxGeometry x="120" y="310" width="120" height="30" as="geometry"/>
                </mxCell>
                <mxCell id="23" value="随机数" style="rounded=1;whiteSpace=wrap;html=1;fillColor=#f8cecc;strokeColor=#b85450;" vertex="1" parent="1">
                    <mxGeometry x="260" y="310" width="120" height="30" as="geometry"/>
                </mxCell>
                <mxCell id="24" value="其他" style="rounded=1;whiteSpace=wrap;html=1;fillColor=#f8cecc;strokeColor=#b85450;" vertex="1" parent="1">
                    <mxGeometry x="540" y="260" width="120" height="30" as="geometry"/>
                </mxCell>
                <mxCell id="25" value="..." style="rounded=1;whiteSpace=wrap;html=1;fillColor=#f8cecc;strokeColor=#b85450;" vertex="1" parent="1">
                    <mxGeometry x="540" y="310" width="120" height="30" as="geometry"/>
                </mxCell>
                <mxCell id="26" value="..." style="rounded=1;whiteSpace=wrap;html=1;fillColor=#f5f5f5;strokeColor=#666666;fontColor=#333333;" vertex="1" parent="1">
                    <mxGeometry x="400" y="440" width="120" height="30" as="geometry"/>
                </mxCell>
            </root>
        </mxGraphModel>
    </diagram>
</mxfile>